P1
144 256
111111110000000000000000000000000000000000000000000000000000000000000000000000000000000000000000000000000000000000000000000000000000000000000000
100000001000000000000000000000000000000000000000000000000000000000000000000000000000000000000000000000000000000000000000000000000000000000000000
100000001011000110011000110011000110011000110011000110011000110011000110011000110011000110011000110011000110011000110011000110011000110011000110
100000001011000110011000110011000110011000110011000110011000110011000110011000110011000110011000110011000110011000110011000110011000110011000110
100000001001101100001101100001101100001101100001101100001101100001101100001101100001101100001101100001101100001101100001101100001101100001101100
100000001001101100001101100001101100001101100001101100001101100001101100001101100001101100001101100001101100001101100001101100001101100001101100
100000001000111000000111000000111000000111000000111000000111000000111000000111000000111000000111000000111000000111000000111000000111000000111000
100000001000111000000111000000111000000111000000111000000111000000111000000111000000111000000111000000111000000111000000111000000111000000111000
100000001001101100001101100001101100001101100001101100001101100001101100001101100001101100001101100001101100001101100001101100001101100001101100
100000001001101100001101100001101100001101100001101100001101100001101100001101100001101100001101100001101100001101100001101100001101100001101100
100000001011000110011000110011000110011000110011000110011000110011000110011000110011000110011000110011000110011000110011000110011000110011000110
100000001011000110011000110011000110011000110011000110011000110011000110011000110011000110011000110011000110011000110011000110011000110011000110
100000001000000000000000000000000000000000000000000000000000000000000000000000000000000000000000000000000000000000000000000000000000000000000000
100000001000000000000000000000000000000000000000000000000000000000000000000000000000000000000000000000000000000000000000000000000000000000000000
100000001000000000000000000000000000000000000000000000000000000000000000000000000000000000000000000000000000000000000000000000000000000000000000
011111110000000000000000000000000000000000000000000000000000000000000000000000000000000000000000000000000000000000000000000000000000000000000000
000000000000000000000000000000000000000000000000000000000000000000000000000000000000000000000000000000000000000000000000000000000000000000000000
000000000000000000000000000000000000000000000000000000000000000000000000000000000000000000000000000000000000000000000000000000000000000000000000
011000110011000110011000110011000110011000110011000110011000110011000110011000110011000110011000110011000110011000110011000110011000110011000110
011000110011000110011000110011000110011000110011000110011000110011000110011000110011000110011000110011000110011000110011000110011000110011000110
001101100001101100001101100001101100001101100001101100001101100001101100001101100001101100001101100001101100001101100001101100001101100001101100
001101100001101100001101100001101100001101100001101100001101100001101100001101100001101100001101100001101100001101100001101100001101100001101100
000111000000111000000111000000111000000111000000111000000111000000111000000111000000111000000111000000111000000111000000111000000111000000111000
000111000000111000000111000000111000000111000000111000000111000000111000000111000000111000000111000000111000000111000000111000000111000000111000
001101100001101100001101100001101100001101100001101100001101100001101100001101100001101100001101100001101100001101100001101100001101100001101100
001101100001101100001101100001101100001101100001101100001101100001101100001101100001101100001101100001101100001101100001101100001101100001101100
011000110011000110011000110011000110011000110011000110011000110011000110011000110011000110011000110011000110011000110011000110011000110011000110
011000110011000110011000110011000110011000110011000110011000110011000110011000110011000110011000110011000110011000110011000110011000110011000110
000000000000000000000000000000000000000000000000000000000000000000000000000000000000000000000000000000000000000000000000000000000000000000000000
000000000000000000000000000000000000000000000000000000000000000000000000000000000000000000000000000000000000000000000000000000000000000000000000
000000000000000000000000000000000000000000000000000000000000000000000000000000000000000000000000000000000000000000000000000000000000000000000000
000000000000000000000000000000000000000000000000000000000000000000000000000000000000000000000000000000000000000000000000000000000000000000000000
000000000000000000000000000000000000000000000000000000000000000000000000000000000000000000000000000000000000000000000000000000000000000000000000
000000000000000000001100110000000000000010000000000000000000000000011000000000000000000000000000000000000000000000000000000000000000000000000000
000000000000011000001100110001101100000010000001100110000111000000011000000001100000110000000000000000000000000000000000000000000000000000000110
000000000000011000001100110001101100001111100011010110001101100000011000000011000000011000000000000000000000000000000000000000000000000000000110
000000000000011000000000000001101100011010110001101100001101100000000000000110000000001100000000000000000000000000000000000000000000000000001100
000000000000011000000000000011111110011010000000001100000111000000000000000110000000001100001101100000011000000000000000000000000000000000001100
000000000000011000000000000001101100011010000000011000001110110000000000000110000000001100000111000000011000000000000000000000000000000000011000
000000000000011000000000000001101100001111100000011000011011100000000000000110000000001100011111110001111110000000000011111110000000000000011000
000000000000011000000000000011111110000010110000110000011001100000000000000110000000001100000111000000011000000000000000000000000000000000110000
000000000000000000000000000001101100000010110000110110011001100000000000000110000000001100001101100000011000000000000000000000000000000000110000
000000000000011000000000000001101100011010110001101011011011100000000000000011000000011000000000000000000000000011000000000000000011000001100000
000000000000011000000000000001101100001111100001100110001110110000000000000001100000110000000000000000000000000011000000000000000011000001100000
000000000000000000000000000000000000000010000000000000000000000000000000000000000000000000000000000000000000000110000000000000000000000000000000
000000000000000000000000000000000000000010000000000000000000000000000000000000000000000000000000000000000000000000000000000000000000000000000000
000000000000000000000000000000000000000000000000000000000000000000000000000000000000000000000000000000000000000000000000000000000000000000000000
000000000000000000000000000000000000000000000000000000000000000000000000000000000000000000000000000000000000000000000000000000000000000000000000
000000000000000000000000000000000000000000000000000000000000000000000000000000000000000000000000000000000000000000000000000000000000000000000000
000000000000000000000000000000000000000000000000000000000000000000000000000000000000000000000000000000000000000000000000000000000000000000000000
001111100000011000001111100001111100000000110011111110000111100011111110001111100001111100000000000000000000000000000000000000000000000001111100
011000110000111000011000110011000110000001110011000000001100000000000110011000110011000110000000000000000000000000110000000000001100000011000110
011000110001111000011000110011000110000011110011000000011000000000000110011000110011000110000000000000000000000001100000000000000110000011000110
011001110000011000000000110000000110000110110011000000011000000000001100011000110011000110000011000000011000000011000011111110000011000011000110
011011110000011000000001100000111100001100110011111100011111100000001100001111100011000110000011000000011000000110000000000000000001100000001100
011110110000011000000011000000000110011000110000000110011000110000011000011000110001111110000000000000000000001100000000000000000000110000011000
011100110000011000000110000000000110011111110000000110011000110000011000011000110000000110000000000000000000000110000011111110000001100000011000
011000110000011000001100000011000110000000110000000110011000110000110000011000110000000110000000000000000000000011000000000000000011000000000000
011000110000011000011000000011000110000000110011000110011000110000110000011000110000001100000011000000011000000001100000000000000110000000011000
001111100001111110011111110001111100000000110001111100001111100000110000001111100001111000000011000000011000000000110000000000001100000000011000
000000000000000000000000000000000000000000000000000000000000000000000000000000000000000000000000000000110000000000000000000000000000000000000000
000000000000000000000000000000000000000000000000000000000000000000000000000000000000000000000000000000000000000000000000000000000000000000000000
000000000000000000000000000000000000000000000000000000000000000000000000000000000000000000000000000000000000000000000000000000000000000000000000
000000000000000000000000000000000000000000000000000000000000000000000000000000000000000000000000000000000000000000000000000000000000000000000000
000000000000000000000000000000000000000000000000000000000000000000000000000000000000000000000000000000000000000000000000000000000000000000000000
000000000000000000000000000000000000000000000000000000000000000000000000000000000000000000000000000000000000000000000000000000000000000000000000
001111100001111100011111100001111100011111000011111110011111110001111100011000110000111100000011110011000110011000000010000010011000110001111100
011000110011000110011000110011000110011001100011000000011000000011000110011000110000011000000001100011000110011000000011000110011000110011000110
011001110011000110011000110011000110011000110011000000011000000011000110011000110000011000000001100011001100011000000011101110011000110011000110
011010110011000110011000110011000000011000110011000000011000000011000000011000110000011000000001100011011000011000000011111110011100110011000110
011010110011000110011111100011000000011000110011111000011111000011000000011111110000011000000001100011110000011000000011010110011110110011000110
011010110011111110011000110011000000011000110011000000011000000011011110011000110000011000000001100011110000011000000011000110011011110011000110
011010110011000110011000110011000000011000110011000000011000000011000110011000110000011000000001100011011000011000000011000110011001110011000110
011001110011000110011000110011000110011000110011000000011000000011000110011000110000011000011001100011001100011000000011000110011000110011000110
011000000011000110011000110011000110011001100011000000011000000011000110011000110000011000011001100011000110011000000011000110011000110011000110
001111110011000110011111100001111100011111000011111110011000000001111100011000110000111100001111000011000110011111110011000110011000110001111100
000000000000000000000000000000000000000000000000000000000000000000000000000000000000000000000000000000000000000000000000000000000000000000000000
000000000000000000000000000000000000000000000000000000000000000000000000000000000000000000000000000000000000000000000000000000000000000000000000
000000000000000000000000000000000000000000000000000000000000000000000000000000000000000000000000000000000000000000000000000000000000000000000000
000000000000000000000000000000000000000000000000000000000000000000000000000000000000000000000000000000000000000000000000000000000000000000000000
000000000000000000000000000000000000000000000000000000000000000000000000000000000000000000000000000000000000000000000000000000000000000000000000
000000000000000000000000000000000000000000000000000000000000000000000000000000000000000000000000000000000000000000000000000000000011000000000000
011111100001111100011111100001111100011111111011000110011000110011000110011000110011000011011111110000111100001100000000111100000111100000000000
011000110011000110011000110011000110000011000011000110011000110011000110011000110011000011000000110000110000001100000000001100001100110000000000
011000110011000110011000110011000000000011000011000110011000110011000110001101100001100110000000110000110000000110000000001100000000000000000000
011000110011000110011000110011000000000011000011000110011000110011000110001101100001100110000001100000110000000110000000001100000000000000000000
011000110011000110011000110001111100000011000011000110011000110011000110000111000000111100000011000000110000000011000000001100000000000000000000
011111100011000110011111100000000110000011000011000110001101100011010110000111000000011000000110000000110000000011000000001100000000000000000000
011000000011000110011110000000000110000011000011000110001101100011111110001101100000011000001100000000110000000001100000001100000000000000000000
011000000011000110011011000011000110000011000011000110001101100011101110001101100000011000011000000000110000000001100000001100000000000000000000
011000000011011110011001100011000110000011000011000110000111000011000110011000110000011000011000000000110000000000110000001100000000000000000000
011000000001111100011000110001111100000011000001111100000111000010000010011000110000011000011111110000111100000000110000111100000000000000000000
000000000000000110000000000000000000000000000000000000000000000000000000000000000000000000000000000000000000000000000000000000000000000000000000
000000000000000000000000000000000000000000000000000000000000000000000000000000000000000000000000000000000000000000000000000000000000000011111110
000000000000000000000000000000000000000000000000000000000000000000000000000000000000000000000000000000000000000000000000000000000000000000000000
000000000000000000000000000000000000000000000000000000000000000000000000000000000000000000000000000000000000000000000000000000000000000000000000
000110000000000000000000000000000000000000000000000000000000000000000000000000000000000000000000000000000000000000000000000000000000000000000000
000011000000000000000000000000000000000000000000000000000000000000000000000000000000000000000000000000000000000000000000000000000000000000000000
000000000000000000011000000000000000000000110000000000000011110000000000011000000000011000000000110011000000000111000000000000000000000000000000
000000000000000000011000000000000000000000110000000000000110000000000000011000000000011000000000110011000000000011000000000000000000000000000000
000000000000000000011000000000000000000000110000000000000110000000000000011000000000000000000000000011000000000011000000000000000000000000000000
000000000001111100011111100001111100001111110001111100011111100001111110011111100000111000000001110011000110000011000011111100011111100001111100
000000000000000110011000110011000110011000110011000110000110000011000110011000110000011000000000110011001100000011000011010110011000110011000110
000000000001111110011000110011000000011000110011000110000110000011000110011000110000011000000000110011011000000011000011010110011000110011000110
000000000011000110011000110011000000011000110011111110000110000011000110011000110000011000000000110011110000000011000011010110011000110011000110
000000000011000110011000110011000000011000110011000000000110000011000110011000110000011000000000110011011000000011000011010110011000110011000110
000000000011000110011000110011000110011000110011000000000110000011000110011000110000011000000000110011001100000011000011010110011000110011000110
000000000001111110011111100001111100001111110001111100000110000001111110011000110000111100000000110011000110000111100011010110011000110001111100
000000000000000000000000000000000000000000000000000000000000000000000110000000000000000000001100110000000000000000000000000000000000000000000000
000000000000000000000000000000000000000000000000000000000000000000000110000000000000000000001100110000000000000000000000000000000000000000000000
000000000000000000000000000000000000000000000000000000000000000001111100000000000000000000000111100000000000000000000000000000000000000000000000
000000000000000000000000000000000000000000000000000000000000000000000000000000000000000000000000000000000000000000000000000000000000000000000000
000000000000000000000000000000000000000000000000000000000000000000000000000000000000000000000000000000000000000000000000000000000000000000000000
000000000000000000000000000000000000000000000000000000000000000000000000000000000000000000000000000000000000000000000000000000001110011000000000
000000000000000000000000000000000000000110000000000000000000000000000000000000000000000000000000000000011100000011000001110000011011011000000000
000000000000000000000000000000000000000110000000000000000000000000000000000000000000000000000000000000110000000011000000011000011001110000000000
000000000000000000000000000000000000000110000000000000000000000000000000000000000000000000000000000000110000000011000000011000000000000000000000
011111100001111110011011110001111110011111100011000110011000110011000110011000110011000110011111110000110000000011000000011000000000000000000000
011000110011000110011110000011000000000110000011000110011000110011000110011000110011000110000001100001100000000011000000001100000000000000000000
011000110011000110011100000011000000000110000011000110011000110011010110001101100011000110000011000000110000000011000000011000000000000000000000
011000110011000110011000000001111100000110000011000110001101100011010110000111000011000110000110000000110000000011000000011000000000000000000000
011000110011000110011000000000000110000110000011000110001101100011010110001101100011000110001100000000110000000011000000011000000000000000000000
011000110011000110011000000000000110000110000011000110000111000011010110011000110011000110011000000000110000000011000000011000000000000000000000
011111100001111110011000000011111100000011110001111110000111000001111100011000110001111110011111110000011100000011000001110000000000000000000000
011000000000000110000000000000000000000000000000000000000000000000000000000000000000000110000000000000000000000000000000000000000000000000000000
011000000000000110000000000000000000000000000000000000000000000000000000000000000000000110000000000000000000000000000000000000000000000000000000
011000000000000110000000000000000000000000000000000000000000000000000000000000000001111100000000000000000000000000000000000000000000000000000000
000000000000000000000000000000000000000000000000000000000000000000000000000000000000000000000000000000000000000000000000000000000000000000000000
000000000000011000000000000000000000000011000000011000000011000000011000000000000000011000000011000111111111000000000111111111111110000000011111
000000000000011000000000000000000000000011000000011000000011000000011000000000000000011000000011000111111111000000000111111111111110000000011111
000000000000011000000000000000000000000011000000011000000011000000011000000000000000011000000011000111111111000000000111111111111110000000011111
000000000000011000000000000000000000000011000000011000000011000000011000000000000000011000000011000111111111000000000111111111111110000000011111
000000000000011000000000000000000000000011000000011000000011000000011000000000000000011000000011000111111111000000000111111111111110000000011111
000000000000011000000000000000000000000011000000011000000011000000011000000000000000011000000011000111111111000000000111111111111110000000011111
000000000000011000000000000000000000000011000000011000000011000000011000000000000000011000000011000111111111000000000111111111111110000000011111
011111111000011000000011111111111000000011111111111000000011111111111000111111111111111111111111111111111111000000000111111111111110000000011111
011111111000011000000011111111111000000011111111111000000011111111111000111111111111111111111111111000000000111111111111111111111110000000011111
000000000000011000000011000000011000000000000000000000000011000000011000000011000000000000000011000000000000111111111111111111111110000000011111
000000000000011000000011000000011000000000000000000000000011000000011000000011000000000000000011000000000000111111111111111111111110000000011111
000000000000011000000011000000011000000000000000000000000011000000011000000011000000000000000011000000000000111111111111111111111110000000011111
000000000000011000000011000000011000000000000000000000000011000000011000000011000000000000000011000000000000111111111111111111111110000000011111
000000000000011000000011000000011000000000000000000000000011000000011000000011000000000000000011000000000000111111111111111111111110000000011111
000000000000011000000011000000011000000000000000000000000011000000011000000011000000000000000011000000000000111111111111111111111110000000011111
000000000000011000000011000000011000000000000000000000000011000000011000000011000000000000000011000000000000111111111111111111111110000000011111
010001000010101010111101110000000000000000000000000000000000000000000000000000000000000000000000000000011000000000000000000000000000000000000000
100100010101010101110111011000000000000000000000000000000001110000000000000000000000000000000000000000011000000111000000111000000000000000000000
010001000010101010111101110000001110000000000000000000000001100000000000000000000000000000000000000000011000001101100001101100000000000000000000
100100010101010101110111011000011011000000000000000000000001100000000000000001100000110000000000000000011000001101100000011000000000000000000000
010001000010101010111101110000011011000000000000000000000001100000000000000011000000011000000000000000011000000111000000110000000000000000011000
100100010101010101110111011000011000001111100000000000000001100001110110000110000000001100000000000000011000000000000001111100000000000000011000
010001000010101010111101110000011000001111100000011000011001100011011100001100000000000110000000000000011000000000000000000000000000000000000000
100100010101010101110111011000011000001111100000111100011001100000000000000110000000001100000000000000011000000000000000000000000011000001111110
010001000010101010111101110000011000001111100000111100011001100001110110000011000000011000000000000000011000000000000000000000000011000000000000
100100010101010101110111011000011000001111100000011000001101100011011100000001100000110000000000000011011000000000000000000000000000000000011000
010001000010101010111101110000011000001111100000000000000111100000000000000000000000000000000000000011011000000000000000000000000000000000011000
100100010101010101110111011000011000000000000000000000000011100000000000001111110001111110000000000001110000000000000000000000000000000000000000
010001000010101010111101110000011000000000000000000000000000000000000000000000000000000000000000000000000000000000000000000000000000000000000000
100100010101010101110111011000011000000000000000000000000000000000000000000000000000000000000000000000000000000000000000000000000000000000000000
010001000010101010111101110000011000000000000000000000000000000000000000000000000000000000000000000000000000000000000000000000000000000000000000
100100010101010101110111011000011000000000000000000000000000000000000000000000000000000000000000000000000000000000000000000000000000000000000000
000000000001101100000000000000000000000000000000000000000000000000000000000000000000011000001101100001101100000011000001101100001101100000011000
000000000001101100000000000000000000000000000000000000000000000000000000000000000000011000001101100001101100000011000001101100001101100000011000
000000000001101100000000000001101100000000000000000000000000000000000000000000000000011000001101100001101100000011000001101100001101100000011000
000000000001101100000000000001101100000000000000000000000000000000000000000000000000011000001101100001101100000011000001101100001101100000011000
000000000001101100000000000000000000000000000000000000000000000000000000000000000000011000001101100001101100000011000001101100001101100000011000
111111111111101100000011111001111100000000000001111111111111000000000000111111100000011111001101100001101111111111000001101100111101100000011111
111111111111101100000011111011000110000000000001111111111111000000000000111111100000011111001101100001101111111111000001101100111101100000011111
000000000001101100000011000011000110001111111001100000000011000111111100000001100000011000001111111001100000000011000111111100000001100000011000
111111111111101100000011111011111110001111111001101111111111000111111100111101100000011111001111111001111111111111000111111100111111100000011111
111111111111101100000011111011000000001101100001101111111111000001101100111101100000011111000000000001111111111111000000000000111111100000011111
000000000001101100000011000011000000001101100001101100000011000001101100001101100000000000000000000000000000000000000000000000000000000000011000
000000000001101100000011000001111100001101100001101100000011000001101100001101100000000000000000000000000000000000000000000000000000000000011000
000000000001101100000011000000000000001101100001101100000011000001101100001101100000000000000000000000000000000000000000000000000000000000011000
000000000001101100000011000000000000001101100001101100000011000001101100001101100000000000000000000000000000000000000000000000000000000000011000
000000000001101100000011000000000000001101100001101100000011000001101100001101100000000000000000000000000000000000000000000000000000000000011000
000000000001101100000011000000000000001101100001101100000011000001101100001101100000000000000000000000000000000000000000000000000000000000011000
001101100001101100000011000001101100001101100001101100000000000000000000000000000000011000001101100001101100000011000001101100001101100000000000
001101100001101100000011000001101100001101100001101100000000000000000000000000000000011000001101100001101100000011000001101100001101100000000000
001101100001101100000011000000000000001101100001101100000000000000000000000000000000011000001101100001101100000011000001101100001101100000000000
001101100001101100000011000011111110001101100001101100000000000000000000000000000000011000001101100001101100000011000001101100001101100001111110
001101100001101100000011000011000000001101100001101100000000000000000000000000000000011000001101100001101100000011000001101100001101100010000001
001101100001101111111111000011000000001101100111101100111111111000000000111111111111111111001101100111101111111111111001101100111101111010011001
001101100001101111111111000011000000001101100111101100111111111000000000111111111111111111001101100111101111111111111001101100111101111010100101
001101111001100000000011000011111000111101100000001100000000000111111111000000000000000000111111111000000000000011000111111111000000000010100001
001101111001101111111111000011000000111101100111101100111111111111111111111101111111111111111111111111111111111111111111111111111101111010100101
001101100001101111111111000011000000001101100111101100111111111001101100111101111111111111000000000111111111111111111001101100111101111010011001
001101100001101100000011000011000000001101100001101100000011000001101100001101100000000000000000000000000000000011000001101100001101100010000001
001101100001101100000011000011111110001101100001101100000011000001101100001101100000000000000000000000000000000011000001101100001101100001111110
001101100001101100000011000000000000001101100001101100000011000001101100001101100000000000000000000000000000000011000001101100001101100000000000
001101100001101100000011000000000000001101100001101100000011000001101100001101100000000000000000000000000000000011000001101100001101100000000000
001101100001101100000011000000000000001101100001101100000011000001101100001101100000000000000000000000000000000011000001101100001101100000000000
001101100001101100000011000000000000001101100001101100000011000001101100001101100000000000000000000000000000000011000001101100001101100000000000
000000000000000000000000000000000000000000000000000000000000000000000000000000000000000000000000000000000000000000000000000000000000000000000000
000000000000000000000000000000000000000000000000000000000000000000000000000000000000000000000000000000000000000000000000000000000000000000000000
000000000000000000001111100000000000000000000000000000000000000000000000000000000000000000001101100000000000000000000000000000000000000000000000
000000000000000000011000000000000000000000000000000000000000000000000000000000000000000000000111000000000000000000000000000000000000000000000000
000000000000000000011000000000000000000000000000000000000010000000000000000000000000000000000000000000000000000000000000000000000000000000000000
011001100001111100011111100011000110001111110001111100001111100001111100011000110011000110011000110011000110000111110011000110011000110001111100
011010110000000110011000110011000110011000110011000110011010110000000110011000110011000110011000110011001100001100110011101110011000110011000110
011010110001111110011000110011000110011000110011000110011010110000000110001101100011000110011000110011011000001100110011111110011000110011000110
011110110011000110011000110011000110011000110011111110011010110001111100000111000011000110011000110011110000001100110011010110011111110011000110
011010110011000110011000110011000110011000110011000000011010110011000000001101100011000110011000110011011000001100110011000110011000110011000110
011010110011000110011000110011000110011000110011000000011010110011000000011000110011000110011000110011001100001100110011000110011000110011000110
011001100001111110011111100001111111001111110001111100001111100001111100011000110001111110001111110011000110011000110011000110011000110001111100
000000000000000000000000000000000011000000110000000000000010000000000000000000000000000000000000000000000000000000000000000000000000000000000000
000000000000000000000000000000000011000000110000000000000000000000000000000000000000000000000000000000000000000000000000000000000000000000000000
000000000000000000000000000000000000001111100000000000000000000000000000000000000000000000000000000000000000000000000000000000000000000000000000
000000000000000000000000000000000000000000000000000000000000000000000000000000000000000000000000000000000000000000000000000000000000000000000000
000000000000000000000000000000000000000000000000000000000000000000000000000000000000000000000000000000000000000000000000000000000000000000000000
000000000000000000000000000000000000000000000000000000000000000000000000000000000000000000000000000000000000000000000000000000000000000000000000
000000000000000000000000000000000000000000000000000000000000000001111000000000000000000000000000000000000000000000000000000000000000000000000000
000000000000000000000000000000000000000000000000000000000000000011001100000000000000000000000000000000000000000000000000000000000000000000000000
000000000000000000000000000000000000000000000000000000000000000011001100000000000000000000000000000000000000000000000000000000000000000000000000
011111110001111110011111100001111100011111111011000110011010110011001000001100000011000110001111100011010110001111100011010110011000110011100000
011000110011000110011000110011000110000011000011000110011010110011111100001100000011000110011000110011010110011000110011010110011000110001100000
011000110011000110011000110011000000000011000011000110001111100011000110001111100011100110000000110011010110000000110011010110011000110001111100
011000110001111110011000110011000000000011000011000110000111000011000110001100110011010110000111100011010110000111110011010110001111110001100110
011000110000110110011000110011000000000011000011000110001111100011000110001100110011010110000000110011010110000000110011010110000000110001100110
011000110001100110011000110011000110000011000011000110011010110011000110001100110011010110011000110011010110011000110011010110000000110001100110
011000110011000110011111100001111100000011000001111110011010110011111100001111100011100110001111100001111110001111100001111111000000110001111100
000000000000000000011000000000000000000000000000000110000000000000000000000000000000000000000000000000000000000000000000000011000000000000000000
000000000000000000011000000000000000000000000000000110000000000000000000000000000000000000000000000000000000000000000000000011000000000000000000
000000000000000000011000000000000000000000000001111100000000000000000000000000000000000000000000000000000000000000000000000000000000000000000000
000000000000000000000000000000000000000000000000000000000000000000000000000000000000000000000000000000000000000000000000000000000000000000000000
000000000000000000000000000000000000000000000000000000000000000000000000000000000000000000001101100000000000000000000000000000000000000000000000
000000000000000000000000000000000000000000000000000000000010000000000000000000000000000000000111000000000000000000000000000000000000000000000000
011001100001111100011111100011000110000111110011111110001111100011111110011000110011000110011000110011000110000011110010000010011000110001111100
011010110011000110011000000011000110001100110011000000011010110011000000011000110011000110011000110011000110000110110011000110011000110011000110
011010110011000110011000000011000110001100110011000000011010110011000000001101100011000110011000110011001100001100110011101110011000110011000110
011010110011000110011111100011000110001100110011000000011010110011000000001101100011001110011001110011011000001100110011111110011000110011000110
011010110011000110011000110011000110001100110011111000011010110011000000000111000011011110011011110011110000001100110011010110011111110011000110
011110110011111110011000110011000110001100110011000000011010110011000000000111000011110110011110110011110000001100110011000110011000110011000110
011010110011000110011000110011000110001100110011000000011010110011000000001101100011100110011100110011011000001100110011000110011000110011000110
011010110011000110011000110011000110001100110011000000011010110011000000001101100011000110011000110011001100001100110011000110011000110011000110
011010110011000110011000110011000110001100110011000000011010110011000000011000110011000110011000110011000110001100110011000110011000110011000110
011001100011000110011111100001111111011111111011111110001111100011000000011000110011000110011000110011000110011000110011000110011000110001111100
000000000000000000000000000000000011011000011000000000000010000000000000000000000000000000000000000000000000000000000000000000000000000000000000
000000000000000000000000000000000011000000000000000000000000000000000000000000000000000000000000000000000000000000000000000000000000000000000000
000000000000000000000000000000000000000000000000000000000000000000000000000000000000000000000000000000000000000000000000000000000000000000000000
000000000000000000000000000000000000000000000000000000000000000000000000000000000000000000000000000000000000000000000000000000000000000000000000
000000000000000000000000000000000000000000000000000000000000000000000000000000000000000000000000000000000000000000000000000000000000000000000000
000000000000000000000000000000000000000000000000000000000000000000000000000000000000000000000000000000000000000000000000000000000000000000000000
011111110001111110011111100001111100011111111011000110011010110011111100001100000011000110001111100011010110001111100011010110011000110011100000
011000110011000110011000110011000110000011000011000110011010110011000110001100000011000110011000110011010110011000110011010110011000110001100000
011000110011000110011000110011000110000011000011000110011010110011000110001100000011000110011000110011010110000000110011010110011000110001100000
011000110011000110011000110011000000000011000011000110001111100011000110001111100011100110000000110011010110000000110011010110011000110001111100
011000110011000110011000110011000000000011000011000110000111000011111100001100110011010110000111100011010110000111110011010110011000110001100110
011000110001111110011111100011000000000011000001111110001111100011000110001100110011010110000000110011010110000000110011010110001111110001100110
011000110000011110011000000011000000000011000000000110011010110011000110001100110011010110000000110011010110000000110011010110000000110001100110
011000110000110110011000000011000110000011000000000110011010110011000110001100110011010110011000110011010110000000110011010110000000110001100110
011000110001100110011000000011000110000011000000000110011010110011000110001100110011010110011000110011010110011000110011010110000000110001100110
011000110011000110011000000001111100000011000001111100011010110011111100001111100011100110001111100001111110001111100001111111000000110001111100
000000000000000000000000000000000000000000000000000000000000000000000000000000000000000000000000000000000000000000000000000011000000000000000000
000000000000000000000000000000000000000000000000000000000000000000000000000000000000000000000000000000000000000000000000000011000000000000000000
000000000000000000000000000000000000000000000000000000000000000000000000000000000000000000000000000000000000000000000000000000000000000000000000
000000000000000000000000000000000000000000000000000000000000000000000000000000000000000000000000000000000000000000000000000000000000000000000000
