P1
112 128
1111110000000000000000000000000000000000000000000000000000000000000000000000000000000000000000000000000000000000
1000001000100001001000100100010010001001000100100010010001001000100100010010001001000100100010010001001000100100
1000001001110001001000100100010010001001000100100010010001001000100100010010001001000100100010010001001000100100
1000001001110000110000011000001100000110000011000001100000110000011000001100000110000011000001100000110000011000
1000001011111000110000011000001100000110000011000001100000110000011000001100000110000011000001100000110000011000
1000001011111001001000100100010010001001000100100010010001001000100100010010001001000100100010010001001000100100
1000001000100001001000100100010010001001000100100010010001001000100100010010001001000100100010010001001000100100
0111111000000000000000000000000000000000000000000000000000000000000000000000000000000000000000000000000000000000
0000000000000000000000000000000000000000000000000000000000000000000000000000000000000000000000000000000000000000
0100100010010001001000100100010010001001000100100010010001001000100100010010001001000100100010010001001000100100
0100100010010001001000100100010010001001000100100010010001001000100100010010001001000100100010010001001000100100
0011000001100000110000011000001100000110000011000001100000110000011000001100000110000011000001100000110000011000
0011000001100000110000011000001100000110000011000001100000110000011000001100000110000011000001100000110000011000
0100100010010001001000100100010010001001000100100010010001001000100100010010001001000100100010010001001000100100
0100100010010001001000100100010010001001000100100010010001001000100100010010001001000100100010010001001000100100
0000000000000000000000000000000000000000000000000000000000000000000000000000000000000000000000000000000000000000
0000000000000000000000010100000100000000000010000000000000000000000000000000000000000000000000000000000000000000
0000000000100000101000010100001110000100000101000000100000010000010000000000000000000000000000000000000000000100
0000000000100000101000111110010100000101000101000000100000100000001000010010000010000000000000000000000000000100
0000000000100000101000010100001110000010000010000000100000100000001000001100000010000000000000000000000000001000
0000000000100000000000111110000101000101000101000000000000100000001000011110001111100000000011110000000000010000
0000000000000000000000010100001110000001000101000000000000100000001000001100000010000001100000000000010000100000
0000000000100000000000010100000100000000000010100000000000010000010000010010000010000001000000000000111000100000
0000000000000000000000000000000000000000000000000000000000000000000000000000000000000010000000000000010000000000
0000000000000000000000000000000000000000000000000000000000000000000000000000000000000000000000000000000000000000
0001000000100000110000111100000100001111000011000011110000110000011000000000000000000000100000000000100000001000
0010100001100001001000001000001100001000000100000000010001001000100100001100000011000001000000000000010000010100
0010100000100000001000011000010100001110000111000000100000110000100100001100000011000010000011110000001000000100
0010100000100000110000000100011110000001000100100000100001001000011100000000000000000010000000000000001000001000
0010100000100001000000100100000100001001000100100001000001001000000100001100000011000001000011110000010000000000
0001000001110001111000011000000100000110000011000001000000110000011000001100000010000000100000000000100000001000
0000000000000000000000000000000000000000000000000000000000000000000000000000000100000000000000000000000000000000
0001100000000000000000000000000000000000000000000000000000000000000000000000000000000000000000000000000000000000
0010010001100001110000011000011100001111000111100001100001001000011100001110001001000100000010010001001000011000
0100110010010001001000100100010010001000000100000010010001001000001000000100001010000100000011110001101000100100
0101010010010001110000100000010010001110000111000010000001111000001000000100001100000100000011110001111000100100
0101010011110001001000100000010010001000000100000010110001001000001000000100001010000100000010010001011000100100
0100100010010001001000100100010010001000000100000010010001001000001000010100001010000100000010010001011000100100
0010000010010001110000011000011100001111000100000001100001001000011100001000001001000111100010010001001000011000
0001100000000000000000000000000000000000000000000000000000000000000000000000000000000000000000000000000000000000
0000000000000000000000000000000000000000000000000000000000000000000000000000000000000000000000000000000000000000
0111000001100001110000011000001110001001000100100010010001001000100010011110000111000100000001110000010000000000
0100100010010001001000100100000100001001000100100010010001001000100010000010000100000100000000010000101000000000
0100100010010001001000010000000100001001000100100010010000110000010100000100000100000010000000010000000000000000
0111000011010001110000001000000100001001000100100011110000110000001000001000000100000001000000010000000000000000
0100000010110001001000100100000100001001000011000011110001001000001000010000000100000000100000010000000000000000
0100000001100001001000011000000100000110000011000010010001001000001000011110000111000000100001110000000000000000
0000000000010000000000000000000000000000000000000000000000000000000000000000000000000000000000000000000000111100
0000000000000000000000000000000000000000000000000000000000000000000000000000000000000000000000000000000000000000
0010000000000001000000000000000010000000000001000000000001000000001000000010001000000011000000000000000000000000
0001000000000001000000000000000010000000000010100000000001000000000000000000001000000001000000000000000000000000
0000000001110001110000001100001110000110000010000001100001110000011000000010001001000001000011010001110000011000
0000000010010001001000010000010010001011000111000010010001001000001000000010001110000001000010101001001000100100
0000000010010001001000010000010010001100000010000001110001001000001000000010001001000001000010101001001000100100
0000000001110001110000001100001110000110000010000000010001001000011100001010001001000011100010101001001000011000
0000000000000000000000000000000000000000000000000001100000000000000000000100000000000000000000000000000000000000
0000000000000000000000000000000000000000000000000000000000000000000000000000000011000000000011000000000000000000
0000000000000000000000000000001000000000000000000000000000000000000000000000000100000001000000100000101000000000
0000000000000000000000000000001000000000000000000000000000000000000000000000000010000001000001000001010000000000
0111000001110001010000001100011100001001000010100010001001001000100100011110001100000001000000110000000000000000
0100100010010001101000011000001000001001000010100010101000110000100100000100000010000001000001000000000000000000
0111000001110001000000000100001010001001000010100010101000110000011100001000000100000001000000100000000000000000
0100000000010001000000011000000100000111000001000001010001001000100100011110000011000001000011000000000000000000
0100000000010000000000000000000000000000000000000000000000000000011000000000000000000000000000000000000000000000
0000000000100000000000000000000100000010000001000000100000000000001000000100011111110000000111111111110000011111
0000000000100000000000000000000100000010000001000000100000000000001000000100011111110000000111111111110000011111
0000000000100000000000000000000100000010000001000000100000000000001000000100011111110000000111111111110000011111
0111110000100000011111111000000111111110000001111111100011111111111111111111111111110000000111111111110000011111
0000000000100000010000001000000000000000000001000000100000010000000000000100000000001111111111111111110000011111
0000000000100000010000001000000000000000000001000000100000010000000000000100000000001111111111111111110000011111
0000000000100000010000001000000000000000000001000000100000010000000000000100000000001111111111111111110000011111
0000000000100000010000001000000000000000000001000000100000010000000000000100000000001111111111111111110000011111
0101010101010010101010000000000000000000000000110000000000000000000000000000000010000000000000100000000000000000
0000000010101011111110000100000000000000000000100000000000001000010000000000000010000001000001010000000000000000
1010101101010001010110001010000000000000000000100000000000010000001000000000000010000010100000010000000000001000
0000000010101011111110001000011110000111000000100001010000100000000100000000000010000001000000100000000000000000
0101010101010010101010001000011110000111000110100010100000010000001000000000000010000000000001110000010000011100
0000000010101011111110001000011110000111000010100001010000001000010000000000001010000000000000000000000000000000
1010101101010001010110001000011110000000000001000010100000111000011100000000000100000000000000000000000000001000
0000000010101011111110001000000000000000000001000000000000000000000000000000000000000000000000000000000000000000
0000000001010000000000000000000000000000000000000000000000000000001000001010000101000001000001010000101000001000
0000000001010000000000101000000000000000000000000000000000000000001000001010000101000001000001010000101000001000
1111111001010000011110000000000000000111111111000000000011111000001111001010000101111111000001010011101000001111
0000000001010000010000011000001111100100000001000111110000001000001000001111100100000001000111110000001000001000
1111111001010000011110101100001010000101111111000001010011101000001111000000000111111111000000000011111000001111
0000000001010000010000110000001010000101000001000001010000101000000000000000000000000000000000000000000000001000
0000000001010000010000011000001010000101000001000001010000101000000000000000000000000000000000000000000000001000
0000000001010000010000000000001010000101000001000001010000101000000000000000000000000000000000000000000000001000
0010100001010000010000000000001010000101000000000000000000000000001000001010000101000001000001010000101000000000
0010100001010000010000111100001010000101000000000000000000000000001000001010000101000001000001010000101000011100
0010100001011111110000100000001010011101001111111000000011111111111111001010011101111111111001010011101110101010
0010111001000000010000111000111010000001000000000111111100000000000000111111100000000001000111111100000000110010
0010100001011111110000100000001010011101001111111001010011101111111111000000011111111111111001010011101110110010
0010100001010000010000100000001010000101000001000001010000101000000000000000000000000001000001010000101000101010
0010100001010000010000111100001010000101000001000001010000101000000000000000000000000001000001010000101000011100
0010100001010000010000000000001010000101000001000001010000101000000000000000000000000001000001010000101000000000
0000000000000000000000000000000000000000000000000000000000000000000000000000000000000000000000000000000000000000
0000000000000000110000000000000000000000000000000000000000000000000000010010000000000000000000000000000000000000
0000000000000001000000000000000000000000000000000000000000000000000000001100000000000000000000000000000000000000
0101000001110001110000100100001110000110000001000001110001001000100100010010001001000001100010001001001000011000
0110100010010001001000100100001010001011000011100001000000110000101100010110001100000010100011011001111000100100
0110100010010001001000100100010010001100000101010001000000110000110100011010001010000010100010101001001000100100
0101000001110000110000111100011110000110000011100001000001001000100100010010001001000100100010001001001000011000
0000000000000000000000000100010010000000000001000000000000000000000000000000000000000000000000000000000000000000
0000000000000000000000000000000000000000000000000000000000000000000000000000000000000000000000000000000000000000
0000000000000000000000000000000000000000000000000000000000000000000000000000000000000000000000000000000000000000
0000000000000000000000000000000000000000000000000011000000000000000000000000000000000000000000000000000000000000
0111100000110001110000001100001110001001000101010010100001000000100100001110001010100011000010101001001000110000
0100100001010001001000010000000100001001000011100011100001110000110100000110001010100001100010101001001000011000
0100100000110001001000010000000100000101000101010010010001001000101100000010001010100000100010101000111000010100
0100100001010001110000001100000100000010000101010011100001110000110100001100001111100011000011111000001000011000
0000000000000001000000000000000000000100000000000000000000000000000000000000000000000000000000001000000000000000
0000000000000000000000000000000000000000000000000000000000000000000000010010000000000000000000000000000000000000
0100100001100001110000101000001100001111000001000011110000101000100100001100001001000001100010010001001000011000
0101010010010001000000101000010100001000000011100010010000101000100100010010001010000010100011110001001000100100
0111010010010001110000101000010100001110000101010010000000010000101100010110001100000010100011110001111000100100
0101010011110001001000101000010100001000000101010010000000010000110100011010001010000010100010010001001000100100
0101010010010001001000101000010100001000000011100010000000101000100100010010001001000010100010010001001000100100
0100100010010001110000111100011110001111000001000010000000101000100100010010001001000100100010010001001000011000
0000000000000000000000000100010010000000000000000000000000000000000000000000000000000000000000000000000000000000
0000000000000000000000000000000000000000000000000000000000000000000000000000000000000000000000000000000000000000
0111100001110001110000011000001110001001000101010011100000100000100010001100001010100111000010101000101000111000
0100100010010001001000100100000100001001000101010010010000100000100010010010001010100000100010101000101000001000
0100100010010001001000100000000100001001000011100011100000110000110010000100001010100011100010101000101000001100
0100100001110001110000100000000100000111000101010010010000101000101010000010001010100000100010101000011000001010
0100100010010001000000100100000100000001000101010010010000101000101010010010001010100000100010101000001000001010
0100100010010001000000011000000100001110000101010011100000110000110010001100001111100111000011111000001000001100
0000000000000000000000000000000000000000000000000000000000000000000000000000000000000000000000001000000000000000
