P1
240 168
111111111111110000000000000000000000000000000000000000000000000000000000000000000000000000000000000000000000000000000000000000000000000000000000000000000000000000000000000000000000000000000000000000000000000000000000000000000000000000000000
100000000000001000000000000000000000000000000000000000000000000000000000000000000000000000000000000000000000000000000000000000000000000000000000000000000000000000000000000000000000000000000000000000000000000000000000000000000000000000000000
100000000000001000000000000000000000000000000000000000000000000000000000000000000000000000000000000000000000000000000000000000000000000000000000000000000000000000000000000000000000000000000000000000000000000000000000000000000000000000000000
101100000001101001100000001100001100000001100001100000001100001100000001100001100000001100001100000001100001100000001100001100000001100001100000001100001100000001100001100000001100001100000001100001100000001100001100000001100001100000001100
101100000001101001100000001100001100000001100001100000001100001100000001100001100000001100001100000001100001100000001100001100000001100001100000001100001100000001100001100000001100001100000001100001100000001100001100000001100001100000001100
100110000011001000110000011000000110000011000000110000011000000110000011000000110000011000000110000011000000110000011000000110000011000000110000011000000110000011000000110000011000000110000011000000110000011000000110000011000000110000011000
100110000011001000110000011000000110000011000000110000011000000110000011000000110000011000000110000011000000110000011000000110000011000000110000011000000110000011000000110000011000000110000011000000110000011000000110000011000000110000011000
100011000110001000011000110000000011000110000000011000110000000011000110000000011000110000000011000110000000011000110000000011000110000000011000110000000011000110000000011000110000000011000110000000011000110000000011000110000000011000110000
100011000110001000011000110000000011000110000000011000110000000011000110000000011000110000000011000110000000011000110000000011000110000000011000110000000011000110000000011000110000000011000110000000011000110000000011000110000000011000110000
100001101100001000001101100000000001101100000000001101100000000001101100000000001101100000000001101100000000001101100000000001101100000000001101100000000001101100000000001101100000000001101100000000001101100000000001101100000000001101100000
100001101100001000001101100000000001101100000000001101100000000001101100000000001101100000000001101100000000001101100000000001101100000000001101100000000001101100000000001101100000000001101100000000001101100000000001101100000000001101100000
100000111000001000000111000000000000111000000000000111000000000000111000000000000111000000000000111000000000000111000000000000111000000000000111000000000000111000000000000111000000000000111000000000000111000000000000111000000000000111000000
100000111000001000000111000000000000111000000000000111000000000000111000000000000111000000000000111000000000000111000000000000111000000000000111000000000000111000000000000111000000000000111000000000000111000000000000111000000000000111000000
100001101100001000001101100000000001101100000000001101100000000001101100000000001101100000000001101100000000001101100000000001101100000000001101100000000001101100000000001101100000000001101100000000001101100000000001101100000000001101100000
100001101100001000001101100000000001101100000000001101100000000001101100000000001101100000000001101100000000001101100000000001101100000000001101100000000001101100000000001101100000000001101100000000001101100000000001101100000000001101100000
100011000110001000011000110000000011000110000000011000110000000011000110000000011000110000000011000110000000011000110000000011000110000000011000110000000011000110000000011000110000000011000110000000011000110000000011000110000000011000110000
100011000110001000011000110000000011000110000000011000110000000011000110000000011000110000000011000110000000011000110000000011000110000000011000110000000011000110000000011000110000000011000110000000011000110000000011000110000000011000110000
100110000011001000110000011000000110000011000000110000011000000110000011000000110000011000000110000011000000110000011000000110000011000000110000011000000110000011000000110000011000000110000011000000110000011000000110000011000000110000011000
100110000011001000110000011000000110000011000000110000011000000110000011000000110000011000000110000011000000110000011000000110000011000000110000011000000110000011000000110000011000000110000011000000110000011000000110000011000000110000011000
101100000001101001100000001100001100000001100001100000001100001100000001100001100000001100001100000001100001100000001100001100000001100001100000001100001100000001100001100000001100001100000001100001100000001100001100000001100001100000001100
101100000001101001100000001100001100000001100001100000001100001100000001100001100000001100001100000001100001100000001100001100000001100001100000001100001100000001100001100000001100001100000001100001100000001100001100000001100001100000001100
100000000000001000000000000000000000000000000000000000000000000000000000000000000000000000000000000000000000000000000000000000000000000000000000000000000000000000000000000000000000000000000000000000000000000000000000000000000000000000000000
100000000000001000000000000000000000000000000000000000000000000000000000000000000000000000000000000000000000000000000000000000000000000000000000000000000000000000000000000000000000000000000000000000000000000000000000000000000000000000000000
011111111111111000000000000000000000000000000000000000000000000000000000000000000000000000000000000000000000000000000000000000000000000000000000000000000000000000000000000000000000000000000000000000000000000000000000000000000000000000000000
000000000000000000000000000000000000000000000000000000000000000000000000000000000000000000000000000000000000000000000000000000000000000000000000000000000000000000000000000000000000000000000000000000000000000000000000000000000000000000000000
000000000000000000000000000000000011000110000000000000000000000000000000000000000000000000000000000000000000000011000000000000000000000000000000000000000000000000000000000000000000000000000000000000000000000000000000000000000000000000000000
000000000000000000000000000000000011000110000000000000000000000000011000000000000000000000000000000000000000000011000000000000000000000000000000000000000000000000000000000000000000000000000000000000000000000000000000000000000000000000000000
000000000000000000000011000000000011000110000000011000110000000000011000000000111100001100000001111000000000000011000000000000001100000000001100000000000000000000000000000000000000000000000000000000000000000000000000000000000000000000001100
000000000000000000000011000000000011000110000000011000110000000001111110000001111110001100000011111100000000000011000000000000011000000000000110000000000000000000000000000000000000000000000000000000000000000000000000000000000000000000001100
000000000000000000000011000000000011000110000000011000110000000011111111000001100110011000000110000110000000000011000000000000110000000000000011000000000000000000000000000000000000000000000000000000000000000000000000000000000000000000011000
000000000000000000000011000000000011000110000000011000110000000110011001100001111110011000000110000110000000000011000000000000110000000000000011000000000000000000000000000011000000000000000000000000000000000000000000000000000000000000011000
000000000000000000000011000000000000000000000001111111111100000110011001100000111100110000000110000110000000000000000000000001100000000000000001100000000111000111000000000011000000000000000000000000000000000000000000000000000000000000110000
000000000000000000000011000000000000000000000001111111111100000110011000000000000000110000000111001110000000000000000000000001100000000000000001100000000011101110000000000011000000000000000000000000000000000000000000000000000000000000110000
000000000000000000000011000000000000000000000000011000110000000110011000000000000001100000000011111100000000000000000000000001100000000000000001100000000001111100000000000011000000000000000000000000000000000000000000000000000000000001100000
000000000000000000000011000000000000000000000000011000110000000110011000000000000001100000000001111000000000000000000000000001100000000000000001100000000000111000000000000011000000000000000000000000000000000000000000000000000000000001100000
000000000000000000000011000000000000000000000000011000110000000011111110000000000011000000000001110000000000000000000000000001100000000000000001100000001111111111100001111111111110000000000000000001111111111100000000000000000000000011000000
000000000000000000000011000000000000000000000000011000110000000001111111000000000011000000000011111000110000000000000000000001100000000000000001100000001111111111100001111111111110000000000000000001111111111100000000000000000000000011000000
000000000000000000000011000000000000000000000000011000110000000000011001100000000110000000000111011101110000000000000000000001100000000000000001100000000000111000000000000011000000000000000000000000000000000000000000000000000000000110000000
000000000000000000000011000000000000000000000000011000110000000000011001100000000110000000001110001111100000000000000000000001100000000000000001100000000001111100000000000011000000000000000000000000000000000000000000000000000000000110000000
000000000000000000000000000000000000000000000001111111111100000000011001100000001100000000001100000111000000000000000000000001100000000000000001100000000011101110000000000011000000000000000000000000000000000000000000000000000000001100000000
000000000000000000000000000000000000000000000001111111111100000110011001100000001100111100001100000111000000000000000000000001100000000000000001100000000111000111000000000011000000000000000000000000000000000000000000000000000000001100000000
000000000000000000000011000000000000000000000000011000110000000110011001100000011001111110001100000111000000000000000000000000110000000000000011000000000000000000000000000011000000000000011000000000000000000000000000011000000000011000000000
000000000000000000000011000000000000000000000000011000110000000011111111000000011001100110001110001111100000000000000000000000110000000000000011000000000000000000000000000000000000000000011000000000000000000000000000011000000000011000000000
000000000000000000000011000000000000000000000000011000110000000001111110000000110001111110000111111101110000000000000000000000011000000000000110000000000000000000000000000000000000000000011000000000000000000000000000011000000000110000000000
000000000000000000000011000000000000000000000000011000110000000000011000000000110000111100000011111000110000000000000000000000001100000000001100000000000000000000000000000000000000000000011000000000000000000000000000011000000000110000000000
000000000000000000000000000000000000000000000000000000000000000000011000000000000000000000000000000000000000000000000000000000000000000000000000000000000000000000000000000000000000000000110000000000000000000000000000000000000000000000000000
000000000000000000000000000000000000000000000000000000000000000000000000000000000000000000000000000000000000000000000000000000000000000000000000000000000000000000000000000000000000000001100000000000000000000000000000000000000000000000000000
000000000000000000000000000000000000000000000000000000000000000000000000000000000000000000000000000000000000000000000000000000000000000000000000000000000000000000000000000000000000000000000000000000000000000000000000000000000000000000000000
000000000000000000000000000000000000000000000000000000000000000000000000000000000000000000000000000000000000000000000000000000000000000000000000000000000000000000000000000000000000000000000000000000000000000000000000000000000000000000000000
000000000000000000000000000000000000000000000000000000000000000000000000000000000000000000000000000000000000000000000000000000000000000000000000000000000000000000000000000000000000000000000000000000000000000000000000000000000000000000000000
000000000000000000000000000000000000000000000000000000000000000000000000000000000000000000000000000000000000000000000000000000000000000000000000000000000000000000000000000000000000000000000000000000000000000000000000000000000000000000000000
000011111110000000000011000000000011111110000000011111110000000000000001100001111111111100000011111111000001111111111100000011111110000000011111110000000000000000000000000000000000000000000000000000000000000000000000000000000000011111110000
000111111111000000000111000000000111111111000000111111111000000000000011100001111111111100000111111111000001111111111100000111111111000000111111111000000000000000000000000000000000000000000011100000000000000000001110000000000000111111111000
001100000001100000001111000000001100000001100001100000001100000000000111100001100000000000001100000000000001100000001100001100000001100001100000001100000000000000000000000000000000000000000111000000000000000000000111000000000001100000001100
001100000001100000011111000000001100000001100001100000001100000000001111100001100000000000001100000000000001100000001100001100000001100001100000001100000000000000000000000000000000000000001110000000000000000000000011100000000001100000001100
001100000011100000000011000000001100000001100000000000001100000000011101100001100000000000001100000000000001100000001100001100000001100001100000001100000000011000000000000011000000000000011100000000000000000000000001110000000001100000001100
001100000111100000000011000000001100000001100000000000001100000000111001100001100000000000001100000000000000000000011000001100000001100001100000001100000000011000000000000011000000000000111000000000000000000000000000111000000001100000001100
001100001111100000000011000000000000000001100000000000001100000001110001100001100000000000001100000000000000000000011000001100000001100001100000001100000000011000000000000011000000000001110000000001111111111110000000011100000000000000011000
001100011101100000000011000000000000000011100000000000001100000011100001100001111111110000001111111110000000000000110000001100000001100001100000001100000000011000000000000011000000000011100000000001111111111110000000001110000000000000110000
001100111001100000000011000000000000000111000000001111111000000111000001100001111111111000001111111111000000000000110000000111111111000001100000001100000000000000000000000000000000000111000000000000000000000000000000000111000000000001100000
001101110001100000000011000000000000001110000000001111111000001110000001100000000000001100001100000001100000000001100000000111111111000000111111111100000000000000000000000000000000001110000000000000000000000000000000000011100000000011000000
001111100001100000000011000000000000011100000000000000001100001100000001100000000000001100001100000001100000000001100000001100000001100000011111111100000000000000000000000000000000000111000000000000000000000000000000000111000000000011000000
001111000001100000000011000000000000111000000000000000001100001100000001100000000000001100001100000001100000000011000000001100000001100000000000001100000000000000000000000000000000000011100000000001111111111110000000001110000000000011000000
001110000001100000000011000000000001110000000000000000001100001111111111100000000000001100001100000001100000000011000000001100000001100000000000001100000000000000000000000000000000000001110000000001111111111110000000011100000000000000000000
001100000001100000000011000000000011100000000000000000001100001111111111100000000000001100001100000001100000000011000000001100000001100000000000001100000000000000000000000000000000000000111000000000000000000000000000111000000000000000000000
001100000001100000000011000000000111000000000001100000001100000000000001100001100000001100001100000001100000000011000000001100000001100000000000001100000000011000000000000011000000000000011100000000000000000000000001110000000000000011000000
001100000001100000000011000000001110000000000001100000001100000000000001100001100000001100001100000001100000000011000000001100000001100000000000001100000000011000000000000011000000000000001110000000000000000000000011100000000000000011000000
000111111111000000011111111000001111111111100000111111111000000000000001100000111111111000000111111111000000000011000000000111111111000000111111111000000000011000000000000011000000000000000111000000000000000000000111000000000000000011000000
000011111110000000011111111000001111111111100000011111110000000000000001100000011111110000000011111110000000000011000000000011111110000000111111110000000000011000000000000011000000000000000011100000000000000000001110000000000000000011000000
000000000000000000000000000000000000000000000000000000000000000000000000000000000000000000000000000000000000000000000000000000000000000000000000000000000000000000000000000110000000000000000000000000000000000000000000000000000000000000000000
000000000000000000000000000000000000000000000000000000000000000000000000000000000000000000000000000000000000000000000000000000000000000000000000000000000000000000000000001100000000000000000000000000000000000000000000000000000000000000000000
000000000000000000000000000000000000000000000000000000000000000000000000000000000000000000000000000000000000000000000000000000000000000000000000000000000000000000000000000000000000000000000000000000000000000000000000000000000000000000000000
000000000000000000000000000000000000000000000000000000000000000000000000000000000000000000000000000000000000000000000000000000000000000000000000000000000000000000000000000000000000000000000000000000000000000000000000000000000000000000000000
000000000000000000000000000000000000000000000000000000000000000000000000000000000000000000000000000000000000000000000000000000000000000000000000000000000000000000000000000000000000000000000000000000000000000000000000000000000000000000000000
000000000000000000000000000000000000000000000000000000000000000000000000000000000000000000000000000000000000000000000000000000000000000000000000000000000000000000000000000000000000000000000000000000000000000000000000000000000000000000000000
000011111111000000011111110000001111111110000000011111110000001111111100000001111111111100001111111111100000011111110000001100000001100000001111110000000000001111110001100000001100001100000000000001000000000010001100000001100000011111110000
000111111111100000111111111000001111111111000000111111111000001111111110000001111111111100001111111111100000111111111000001100000001100000001111110000000000001111110001100000011100001100000000000001100000000110001100000001100000111111111000
001100000000110001100000001100001100000001100001100000001100001100000111000001100000000000001100000000000001100000001100001100000001100000000011000000000000000011000001100000111000001100000000000001110000001110001100000001100001100000001100
001100000000110001100000001100001100000001100001100000001100001100000011100001100000000000001100000000000001100000001100001100000001100000000011000000000000000011000001100001110000001100000000000001111000011110001100000001100001100000001100
001100001111110001100000001100001100000001100001100000001100001100000001100001100000000000001100000000000001100000001100001100000001100000000011000000000000000011000001100011100000001100000000000001111100111110001110000001100001100000001100
001100011111110001100000001100001100000001100001100000000000001100000001100001100000000000001100000000000001100000000000001100000001100000000011000000000000000011000001100111000000001100000000000001101111110110001111000001100001100000001100
001100110000110001100000001100001100000011000001100000000000001100000001100001100000000000001100000000000001100000000000001100000001100000000011000000000000000011000001101110000000001100000000000001100111100110001111100001100001100000001100
001100110000110001100000001100001111111110000001100000000000001100000001100001100000000000001100000000000001100000000000001100000001100000000011000000000000000011000001111100000000001100000000000001100011000110001101110001100001100000001100
001100110000110001100000001100001111111110000001100000000000001100000001100001111111100000001111111100000001100011111100001111111111100000000011000000000000000011000001111000000000001100000000000001100000000110001100111001100001100000001100
001100110000110001111111111100001100000011000001100000000000001100000001100001111111100000001111111100000001100011111100001111111111100000000011000000000000000011000001111000000000001100000000000001100000000110001100011101100001100000001100
001100110000110001111111111100001100000001100001100000000000001100000001100001100000000000001100000000000001100000001100001100000001100000000011000000000000000011000001111100000000001100000000000001100000000110001100001111100001100000001100
001100110000110001100000001100001100000001100001100000000000001100000001100001100000000000001100000000000001100000001100001100000001100000000011000000000000000011000001101110000000001100000000000001100000000110001100000111100001100000001100
001100011111110001100000001100001100000001100001100000000000001100000001100001100000000000001100000000000001100000001100001100000001100000000011000000001100000011000001100111000000001100000000000001100000000110001100000011100001100000001100
001100001111010001100000001100001100000001100001100000001100001100000001100001100000000000001100000000000001100000001100001100000001100000000011000000001100000011000001100011100000001100000000000001100000000110001100000001100001100000001100
001100000000000001100000001100001100000001100001100000001100001100000011100001100000000000001100000000000001100000001100001100000001100000000011000000001100000011000001100001110000001100000000000001100000000110001100000001100001100000001100
001100000000000001100000001100001100000001100001100000001100001100000111000001100000000000001100000000000001100000001100001100000001100000000011000000001100000011000001100000111000001100000000000001100000000110001100000001100001100000001100
000111111111110001100000001100001111111111000000111111111000001111111110000001111111111100001100000000000000111111111000001100000001100000001111110000000111111110000001100000011100001111111111100001100000000110001100000001100000111111111000
000011111111110001100000001100001111111110000000011111110000001111111100000001111111111100001100000000000000011111110000001100000001100000001111110000000011111100000001100000001100001111111111100001100000000110001100000001100000011111110000
000000000000000000000000000000000000000000000000000000000000000000000000000000000000000000000000000000000000000000000000000000000000000000000000000000000000000000000000000000000000000000000000000000000000000000000000000000000000000000000000
000000000000000000000000000000000000000000000000000000000000000000000000000000000000000000000000000000000000000000000000000000000000000000000000000000000000000000000000000000000000000000000000000000000000000000000000000000000000000000000000
000000000000000000000000000000000000000000000000000000000000000000000000000000000000000000000000000000000000000000000000000000000000000000000000000000000000000000000000000000000000000000000000000000000000000000000000000000000000000000000000
000000000000000000000000000000000000000000000000000000000000000000000000000000000000000000000000000000000000000000000000000000000000000000000000000000000000000000000000000000000000000000000000000000000000000000000000000000000000000000000000
000000000000000000000000000000000000000000000000000000000000000000000000000000000000000000000000000000000000000000000000000000000000000000000000000000000000000000000000000000000000000000000000000000000000000000000000011000000000000000000000
000000000000000000000000000000000000000000000000000000000000000000000000000000000000000000000000000000000000000000000000000000000000000000000000000000000000000000000000000000000000000000000000000000000000000000000000111100000000000000000000
001111111110000000011111110000001111111110000000011111110000001111111111110001100000001100001100000001100001100000000110001100000001100001100000000110001111111111100000001111110000000110000000000000001111110000000001111110000000000000000000
001111111111000000111111111000001111111111000000111111111000001111111111110001100000001100001100000001100001100000000110001100000001100001100000000110001111111111100000001111110000000110000000000000001111110000000011100111000000000000000000
001100000001100001100000001100001100000001100001100000001100000000011000000001100000001100001100000001100001100000000110000110000011000000110000001100000000000001100000001100000000000011000000000000000000110000000111000011100000000000000000
001100000001100001100000001100001100000001100001100000001100000000011000000001100000001100001100000001100001100000000110000110000011000000110000001100000000000001100000001100000000000011000000000000000000110000000000000000000000000000000000
001100000001100001100000001100001100000001100001100000000000000000011000000001100000001100000110000011000001100000000110000011000110000000011000011000000000000011100000001100000000000001100000000000000000110000000000000000000000000000000000
001100000001100001100000001100001100000001100001100000000000000000011000000001100000001100000110000011000001100000000110000011000110000000011000011000000000000111000000001100000000000001100000000000000000110000000000000000000000000000000000
001100000001100001100000001100001100000001100001100000000000000000011000000001100000001100000110000011000001100000000110000001101100000000001100110000000000001110000000001100000000000000110000000000000000110000000000000000000000000000000000
001100000001100001100000001100001100000001100001100000000000000000011000000001100000001100000110000011000001100000000110000001101100000000001100110000000000011100000000001100000000000000110000000000000000110000000000000000000000000000000000
001100000001100001100000001100001100000001100000111111110000000000011000000001100000001100000011000110000001100000000110000000111000000000000111100000000000111000000000001100000000000000011000000000000000110000000000000000000000000000000000
001111111111000001100000001100001111111111000000011111111000000000011000000001100000001100000011000110000001100000000110000000111000000000000111100000000001110000000000001100000000000000011000000000000000110000000000000000000000000000000000
001111111110000001100000001100001111111110000000000000001100000000011000000001100000001100000011000110000001100011000110000001101100000000000011000000000011100000000000001100000000000000001100000000000000110000000000000000000000000000000000
001100000000000001100000001100001111100000000000000000001100000000011000000001100000001100000011000110000001100111100110000001101100000000000011000000000111000000000000001100000000000000001100000000000000110000000000000000000000000000000000
001100000000000001100000001100001101110000000000000000001100000000011000000001100000001100000001101100000001101111110110000011000110000000000011000000001110000000000000001100000000000000000110000000000000110000000000000000000000000000000000
001100000000000001100000001100001100111000000000000000001100000000011000000001100000001100000001101100000001111100111110000011000110000000000011000000001100000000000000001100000000000000000110000000000000110000000000000000000000000000000000
001100000000000001100011101100001100011100000001100000001100000000011000000001100000001100000001101100000001111000011110000110000011000000000011000000001100000000000000001100000000000000000011000000000000110000000000000000000000000000000000
001100000000000001100001111100001100001110000001100000001100000000011000000001100000001100000000111000000001110000001110000110000011000000000011000000001100000000000000001100000000000000000011000000000000110000000000000000000000000000000000
001100000000000000111111111000001100000111000000111111111000000000011000000000111111111000000000111000000001100000000110001100000001100000000011000000001111111111100000001111110000000000000001100000001111110000000000000000000000000000000000
001100000000000000011111111000001100000011100000011111110000000000011000000000011111110000000000111000000001000000000010001100000001100000000011000000001111111111100000001111110000000000000001100000001111110000000000000000000000000000000000
000000000000000000000000011100000000000000000000000000000000000000000000000000000000000000000000000000000000000000000000000000000000000000000000000000000000000000000000000000000000000000000000000000000000000000000000000000000000000000000000
000000000000000000000000001110000000000000000000000000000000000000000000000000000000000000000000000000000000000000000000000000000000000000000000000000000000000000000000000000000000000000000000000000000000000000000000000000000001111111111100
000000000000000000000000000000000000000000000000000000000000000000000000000000000000000000000000000000000000000000000000000000000000000000000000000000000000000000000000000000000000000000000000000000000000000000000000000000000001111111111100
000001110000000000000000000000000000000000000000000000000000000000000000000000000000000000000000000000000000000000000000000000000000000000000000000000000000000000000000000000000000000000000000000000000000000000000000000000000000000000000000
000000111000000000000000000000000000000000000000000000000000000000000000000000000000000000000000000000000000000000000000000000000000000000000000000000000000000000000000000000000000000000000000000000000000000000000000000000000000000000000000
000000000000000000000000000000000000000000000000000000000000000000000000000000000000000000000000000000000000000000000000000000000000000000000000000000000000000000000000000000000000000000000000000000000000000000000000000000000000000000000000
000000000000000000000000000000001100000000000000000000000000000000000001100000000000000000000000011111100000000000000000001100000000000000000011000000000000000011000000110000000000000001111000000000000000000000000000000000000000000000000000
000000000000000000000000000000001100000000000000000000000000000000000001100000000000000000000000111111100000000000000000001100000000000000000011000000000000000011000000110000000000000001111000000000000000000000000000000000000000000000000000
000000000000000000000000000000001100000000000000000000000000000000000001100000000000000000000000110000000000000000000000001100000000000000000011000000000000000011000000110000000000000000011000000000000000000000000000000000000000000000000000
000000000000000000000000000000001100000000000000000000000000000000000001100000000000000000000000110000000000000000000000001100000000000000000000000000000000000000000000110000000000000000011000000000000000000000000000000000000000000000000000
000000000000000000000000000000001100000000000000000000000000000000000001100000000000000000000000110000000000000000000000001100000000000000000000000000000000000000000000110000000000000000011000000000000000000000000000000000000000000000000000
000000000000000000011111110000001111111110000000011111110000000011111111100000011111110000000111111110000000011111111100001111111110000000001111000000000000001111000000110000011100000000011000000001111111111000001111111110000000011111110000
000000000000000000011111111000001111111111000000111111111000000111111111100000111111111000000111111110000000111111111100001111111111000000001111000000000000001111000000110000111000000000011000000001111111111100001111111111000000111111111000
000000000000000000000000001100001100000001100001100000011100001100000001100001100000001100000000110000000001100000001100001100000001100000000011000000000000000011000000110001110000000000011000000001100011000110001100000001100001100000001100
000000000000000000000000001100001100000001100001100000000000001100000001100001100000001100000000110000000001100000001100001100000001100000000011000000000000000011000000110011100000000000011000000001100011000110001100000001100001100000001100
000000000000000000011111111100001100000001100001100000000000001100000001100001100000001100000000110000000001100000001100001100000001100000000011000000000000000011000000110111000000000000011000000001100011000110001100000001100001100000001100
000000000000000000111111111100001100000001100001100000000000001100000001100001111111111100000000110000000001100000001100001100000001100000000011000000000000000011000000111110000000000000011000000001100011000110001100000001100001100000001100
000000000000000001100000001100001100000001100001100000000000001100000001100001111111111100000000110000000001100000001100001100000001100000000011000000000000000011000000111100000000000000011000000001100011000110001100000001100001100000001100
000000000000000001100000001100001100000001100001100000000000001100000001100001100000000000000000110000000001100000001100001100000001100000000011000000000000000011000000111110000000000000011000000001100011000110001100000001100001100000001100
000000000000000001100000001100001100000001100001100000000000001100000001100001100000000000000000110000000001100000001100001100000001100000000011000000000000000011000000110111000000000000011000000001100011000110001100000001100001100000001100
000000000000000001100000001100001100000001100001100000000000001100000001100001100000000000000000110000000001100000001100001100000001100000000011000000000000000011000000110011100000000000011000000001100011000110001100000001100001100000001100
000000000000000001100000001100001100000001100001100000011100001100000001100001100000011100000000110000000001100000001100001100000001100000000011000000000000000011000000110001110000000000011000000001100011000110001100000001100001100000001100
000000000000000000111111111100001111111111000000111111111000000111111111100000111111111000000000110000000000111111111100001100000001100000001111110000000110000011000000110000111000000001111110000001100011000110001100000001100000111111111000
000000000000000000011111111100001111111110000000011111110000000011111111100000011111110000000000110000000000011111111100001100000001100000001111110000000110000011000000110000011100000001111110000001100011000110001100000001100000011111110000
000000000000000000000000000000000000000000000000000000000000000000000000000000000000000000000000000000000000000000001100000000000000000000000000000000000111111111000000000000000000000000000000000000000000000000000000000000000000000000000000
000000000000000000000000000000000000000000000000000000000000000000000000000000000000000000000000000000000000000000001100000000000000000000000000000000000011111110000000000000000000000000000000000000000000000000000000000000000000000000000000
000000000000000000000000000000000000000000000000000000000000000000000000000000000000000000000000000000000000000000001100000000000000000000000000000000000000000000000000000000000000000000000000000000000000000000000000000000000000000000000000
000000000000000000000000000000000000000000000000000000000000000000000000000000000000000000000000000000000000000000000000000000000000000000000000000000000000000000000000000000000000000000000000000000000000000000000000000000000000000000000000
000000000000000000000000000000000000000000000000000000000000000000000000000000000000000000000000000000000000000000000000000000000000000000000000000000000000000000000000000000000000000000000000000000000000000000000111100001100000000000000000
000000000000000000000000000000000000000000000000000000000000000000000000000000000000000000000000000000000000000000000000000000000000000000000000000000000000000000000000000000000000000000000000000000000000000000001111110001100000000000000000
000000000000000000000000000000000000000000000000000000000000000000110000000000000000000000000000000000000000000000000000000000000000000000000000000000000000000000000000000001110000000000011000000000011100000000001100011001100000000000000000
000000000000000000000000000000000000000000000000000000000000000000110000000000000000000000000000000000000000000000000000000000000000000000000000000000000000000000000000000011110000000000011000000000011110000000001100011111100000000000000000
000000000000000000000000000000000000000000000000000000000000000000110000000000000000000000000000000000000000000000000000000000000000000000000000000000000000000000000000000110000000000000011000000000000011000000001100001111000000000000000000
000000000000000000000000000000000000000000000000000000000000000000110000000000000000000000000000000000000000000000000000000000000000000000000000000000000000000000000000000110000000000000011000000000000011000000000000000000000000000000000000
000000000000000000000000000000000000000000000000000000000000000000110000000000000000000000000000000000000000000000000000000000000000000000000000000000000000000000000000000110000000000000011000000000000011000000000000000000000000000000000000
001111111110000000011111111100001100111111100000011111110000000111111110000001100000001100001100000001100001100000000110001100000001100001100000001100001111111111100000000110000000000000011000000000000011000000000000000000000000000000000000
001111111111000000111111111100001101111111100000111111111000000111111110000001100000001100001100000001100001100000000110001100000001100001100000001100001111111111100000000110000000000000011000000000000011000000000000000000000000000000000000
001100000001100001100000001100001111100000000001100000001100000000110000000001100000001100001100000001100001100000000110001110000011100001100000001100000000000011100000000110000000000000011000000000000011000000000000000000000000000000000000
001100000001100001100000001100001111000000000001100000000000000000110000000001100000001100000110000011000001100000000110000111000111000001100000001100000000000111000000011100000000000000011000000000000001110000000000000000000000000000000000
001100000001100001100000001100001110000000000001100000000000000000110000000001100000001100000110000011000001100011000110000011101110000001100000001100000000001110000000011100000000000000011000000000000001110000000000000000000000000000000000
001100000001100001100000001100001100000000000000111111110000000000110000000001100000001100000110000011000001100011000110000001111100000001100000001100000000011100000000000110000000000000011000000000000011000000000000000000000000000000000000
001100000001100001100000001100001100000000000000011111111000000000110000000001100000001100000011000110000001100011000110000000111000000001100000001100000000111000000000000110000000000000011000000000000011000000000000000000000000000000000000
001100000001100001100000001100001100000000000000000000001100000000110000000001100000001100000011000110000001100011000110000001111100000001100000001100000001110000000000000110000000000000011000000000000011000000000000000000000000000000000000
001100000001100001100000001100001100000000000000000000001100000000110000000001100000001100000011000110000001100011000110000011101110000001100000001100000011100000000000000110000000000000011000000000000011000000000000000000000000000000000000
001100000001100001100000001100001100000000000000000000001100000000110000000001100000001100000001101100000001100011000110000111000111000001100000001100000111000000000000000110000000000000011000000000000011000000000000000000000000000000000000
001100000001100001100000001100001100000000000001110000001100000000110000000001100000001100000001101100000001100011000110001110000011100001100000001100001110000000000000000110000000000000011000000000000011000000000000000000000000000000000000
001111111111000000111111111100001100000000000000111111111000000000111111000000111111111100000000111000000000111111111100001100000001100000111111111100001111111111100000000011110000000000011000000000011110000000000000000000000000000000000000
001111111110000000011111111100001100000000000000011111110000000000011111000000011111111100000000111000000000011111111000001100000001100000011111111100001111111111100000000001110000000000011000000000011100000000000000000000000000000000000000
001100000000000000000000001100000000000000000000000000000000000000000000000000000000000000000000000000000000000000000000000000000000000000000000001100000000000000000000000000000000000000000000000000000000000000000000000000000000000000000000
001100000000000000000000001100000000000000000000000000000000000000000000000000000000000000000000000000000000000000000000000000000000000000000000001100000000000000000000000000000000000000000000000000000000000000000000000000000000000000000000
001100000000000000000000001100000000000000000000000000000000000000000000000000000000000000000000000000000000000000000000000000000000000000000000001100000000000000000000000000000000000000000000000000000000000000000000000000000000000000000000
