P1
16 16
0000000000000000
0000000000000000
0000000000000000
0001111001111000
0001111001111000
0001111001111000
0001111001111000
0001111001111000
0001111001111000
0001111001111000
0001111001111000
0001111001111000
0001111001111000
0001111001111000
0000000000000000
0000000000000000

