P1
16 16
0000000000000000
0000000000000000
0000000000000000
0011000000000000
0011110000000000
0011111100000000
0011111111000000
0011111111110000
0011111111111100
0011111111110000
0011111111000000
0011111100000000
0011110000000000
0011000000000000
0000000000000000
0000000000000000

